<?xml version="1.0" standalone="no"?>
<!DOCTYPE svg PUBLIC "-//W3C//DTD SVG 20010904//EN"
 "http://www.w3.org/TR/2001/REC-SVG-20010904/DTD/svg10.dtd">
<svg version="1.0" xmlns="http://www.w3.org/2000/svg"
 width="900.000000pt" height="129.000000pt" viewBox="0 0 900.000000 129.000000"
 preserveAspectRatio="xMidYMid meet">
<metadata>
Created by potrace 1.10, written by Peter Selinger 2001-2011
</metadata>
<g transform="translate(0.000000,129.000000) scale(0.100000,-0.100000)"
fill="#892a00" stroke="none">
<path d="M122 1174 c-30 -20 -28 -47 6 -76 62 -53 61 -45 62 -405 0 -180 1
-336 0 -345 0 -10 -17 -26 -39 -37 -21 -11 -41 -27 -45 -36 -9 -23 11 -55 34
-55 11 0 20 -6 20 -14 0 -36 26 -44 127 -39 54 3 114 1 133 -4 46 -13 80 -1
80 29 -1 30 -31 65 -60 70 -33 4 -50 61 -53 177 l-2 96 35 -2 c167 -8 174 -8
214 20 21 15 44 27 51 27 18 0 83 82 91 116 4 16 11 34 16 41 12 15 5 132 -11
191 -14 54 -60 112 -124 160 -97 71 -107 73 -277 78 -85 3 -171 9 -190 14 -44
13 -42 13 -68 -6z m342 -50 c37 -14 13 -26 -44 -22 -61 4 -74 -4 -48 -30 15
-15 -4 -32 -37 -32 -14 0 -25 -10 -32 -30 -8 -21 -16 -28 -27 -24 -13 5 -12
10 6 35 20 27 21 30 4 47 -15 18 -15 20 0 33 9 8 26 12 38 11 12 -2 33 2 46 7
29 11 72 14 94 5z m80 -39 c8 -8 18 -15 23 -15 4 0 25 -15 46 -33 37 -33 48
-57 25 -57 -16 0 -48 31 -48 47 0 7 -6 13 -14 13 -8 0 -16 6 -19 14 -3 8 -16
16 -28 18 -25 3 -39 28 -16 28 9 0 22 -7 31 -15z m-61 -111 c47 -6 62 -12 82
-36 30 -36 31 -70 5 -123 -38 -74 -50 -90 -66 -87 -8 2 -21 -1 -27 -6 -7 -5
-27 -12 -44 -15 -46 -9 -55 12 -48 124 3 55 0 99 -6 111 -16 29 -3 51 24 44
13 -3 49 -8 80 -12z m-173 -59 c0 -19 -4 -35 -9 -35 -10 0 -22 51 -14 62 11
19 23 5 23 -27z m340 -109 c0 -8 -4 -18 -10 -21 -5 -3 -10 3 -10 14 0 12 5 21
10 21 6 0 10 -6 10 -14z m-15 -86 c11 -12 9 -20 -10 -44 -20 -25 -26 -28 -39
-17 -22 18 -20 36 6 72 14 19 24 25 27 17 2 -7 9 -20 16 -28z m-272 -19 c35
-13 42 -40 14 -50 -13 -5 -29 -16 -36 -25 -7 -9 -22 -16 -33 -16 -17 0 -19 -4
-13 -22 14 -40 12 -151 -3 -156 -10 -3 -13 10 -12 49 2 64 -4 117 -15 142 -10
23 0 32 33 32 24 0 27 4 24 28 -4 29 3 32 41 18z m135 -73 c-2 -17 -11 -24
-30 -26 -19 -2 -28 1 -28 10 0 20 21 38 43 38 13 0 18 -6 15 -22z m-193 -298
c-5 -22 -1 -27 27 -38 42 -16 25 -35 -28 -30 -34 3 -39 6 -42 31 -2 15 1 27 7
27 6 0 11 11 11 24 0 13 3 32 7 42 6 15 8 14 15 -6 5 -13 6 -35 3 -50z"/>
<path d="M3745 937 c-25 -38 -51 -44 -170 -36 -76 5 -118 3 -135 -5 -23 -11
-25 -15 -21 -71 9 -114 8 -120 -15 -123 -27 -4 -34 -27 -34 -112 1 -49 7 -78
25 -115 22 -45 25 -62 25 -176 0 -104 3 -128 15 -133 8 -3 15 -14 15 -23 0
-25 28 -63 45 -63 8 0 26 24 42 52 25 47 32 53 58 51 29 -2 56 -2 100 -2 50 0
87 -14 96 -37 13 -35 55 -52 76 -31 14 14 14 23 4 77 -7 34 -12 78 -11 98 3
58 1 62 -21 62 -14 0 -24 10 -32 30 -6 17 -15 30 -20 30 -5 0 -23 -16 -41 -35
-30 -32 -38 -35 -90 -35 -55 0 -66 -6 -45 -27 7 -7 0 -14 -23 -23 -18 -6 -43
-17 -55 -23 -26 -12 -28 -10 -37 19 -5 17 1 23 44 38 l50 18 -5 62 c-3 33 -2
66 2 73 6 9 30 9 93 1 75 -9 88 -13 113 -40 15 -16 35 -28 45 -26 15 3 17 17
17 108 1 106 -6 133 -29 124 -8 -3 -16 2 -19 10 -6 15 4 21 27 17 24 -5 31 22
29 121 0 56 -2 106 -2 109 -1 4 -12 10 -25 13 -13 3 -26 15 -29 26 -7 28 -43
26 -62 -3z m4 -203 c38 -8 39 -21 3 -62 -27 -30 -33 -32 -95 -32 l-66 0 -9 33
c-15 54 -1 67 72 67 35 0 78 -3 95 -6z m-276 -124 c7 -26 22 -25 48 1 25 25
57 19 82 -16 18 -24 18 -25 -19 -40 -20 -8 -40 -15 -44 -15 -10 0 -20 -38 -20
-81 0 -40 -6 -50 -26 -42 -15 6 -18 73 -5 108 8 19 3 29 -33 65 -10 10 -15 23
-11 29 10 17 22 13 28 -9z"/>
<path d="M4299 930 c-12 -34 -22 -35 -163 -21 -92 10 -113 6 -122 -21 -5 -16
3 -29 30 -54 l36 -33 0 -237 0 -238 -36 -32 c-39 -36 -40 -57 -5 -62 14 -2 26
-14 33 -33 9 -26 25 -35 53 -29 6 1 47 2 93 2 70 -1 83 2 92 18 18 34 12 49
-22 52 l-33 3 -1 95 c0 52 -2 165 -4 250 l-5 155 37 3 c21 2 47 -2 58 -8 21
-11 21 -17 18 -220 -3 -206 -3 -209 -27 -231 l-24 -22 22 -18 c12 -10 26 -31
32 -48 l10 -30 106 2 c113 2 116 3 128 60 3 15 12 27 20 27 18 0 18 -5 5 -31
-7 -13 -7 -25 -1 -38 9 -16 26 -19 118 -23 59 -3 114 -3 121 -1 6 3 12 18 12
34 0 22 -6 30 -25 35 -14 3 -30 15 -36 25 -16 31 -23 291 -9 334 9 27 9 40 1
48 -6 6 -11 37 -11 68 0 56 1 58 30 64 52 11 67 75 18 75 -30 0 -44 10 -53 39
-7 23 -10 23 -93 19 -103 -6 -168 6 -182 33 -10 17 -22 19 -111 19 l-100 0
-10 -30z m77 -61 c4 -8 9 -8 17 0 15 15 27 14 27 -3 0 -19 -30 -29 -46 -15
-11 9 -19 8 -34 -6 -26 -23 -52 -6 -30 20 14 17 56 20 66 4z m294 -18 c0 -16
-13 -20 -32 -10 -10 5 -16 14 -13 19 6 9 45 1 45 -9z m-127 -8 c14 -8 7 -23
-12 -23 -10 0 -24 -7 -31 -15 -7 -8 -18 -15 -25 -15 -7 0 -15 -18 -19 -40 -7
-45 -20 -51 -37 -18 -9 17 -8 28 7 57 31 62 44 73 78 65 17 -3 34 -8 39 -11z
m-323 -29 c0 -17 -22 -14 -28 4 -2 7 3 12 12 12 9 0 16 -7 16 -16z m393 -73
l24 -9 -3 -211 c-1 -116 -5 -215 -9 -221 -3 -5 -12 -10 -20 -10 -7 0 -15 -10
-17 -22 -4 -30 -23 -33 -48 -8 -22 22 -22 32 -8 175 3 33 -11 248 -18 274 -11
37 40 54 99 32z m-173 -376 c-3 -5 -7 1 -8 15 -2 14 -8 30 -14 37 -6 8 -5 20
4 35 12 22 13 20 18 -27 3 -27 3 -54 0 -60z m16 -70 c42 -17 36 -35 -12 -35
-30 0 -34 3 -34 25 0 29 0 29 46 10z m275 0 c35 -19 30 -35 -12 -35 -24 0 -29
4 -29 25 0 29 2 30 41 10z m-540 -6 c26 -14 15 -29 -22 -29 -22 0 -29 5 -29
20 0 22 20 26 51 9z"/>
<path d="M8333 953 c-7 -2 -13 -10 -13 -18 0 -27 -26 -32 -135 -26 -151 10
-176 -6 -115 -76 l30 -34 0 -236 0 -237 -36 -32 c-39 -37 -40 -55 -4 -64 15
-4 27 -15 30 -30 l6 -25 269 -1 c149 -1 329 -3 400 -5 l130 -4 4 25 c2 18 -6
32 -30 52 l-33 28 -3 221 c-2 122 -7 229 -12 238 -11 22 -3 41 17 41 22 1 62
34 62 52 0 21 -21 38 -47 38 -16 0 -27 9 -35 26 -12 26 -14 26 -88 21 -90 -6
-170 9 -188 34 -11 16 -26 19 -105 18 -51 0 -98 -3 -104 -6z m115 -142 c2 -40
0 -52 -10 -49 -14 5 -31 85 -22 100 14 22 29 -3 32 -51z m75 45 c16 -12 17
-17 5 -38 -7 -12 -14 -25 -15 -26 -3 -7 -43 10 -43 18 0 17 20 60 27 60 5 0
16 -7 26 -14z m-283 -36 c0 -11 -7 -20 -15 -20 -8 0 -15 9 -15 20 0 11 7 20
15 20 8 0 15 -9 15 -20z m137 -84 c4 -4 6 -102 4 -219 -3 -195 -4 -212 -22
-225 -10 -7 -19 -20 -19 -28 0 -11 -9 -14 -32 -12 -27 2 -32 7 -30 23 2 11 2
27 2 35 -1 8 -3 92 -4 185 -1 94 -6 185 -10 202 -4 18 -4 38 0 44 7 12 99 8
111 -5z m276 -10 c4 -6 6 -101 5 -212 l-3 -201 -32 -31 c-35 -36 -59 -41 -67
-14 -2 9 -3 89 -2 177 1 88 -2 166 -7 172 -5 7 -7 22 -4 34 3 12 1 33 -4 47
-17 45 -5 55 54 47 28 -4 55 -13 60 -19z m-453 -302 c0 -14 -4 -23 -10 -19 -5
3 -10 15 -10 26 0 10 5 19 10 19 6 0 10 -12 10 -26z m280 -126 c35 -26 30 -38
-16 -38 -31 0 -34 2 -34 30 0 36 11 37 50 8z m264 1 c42 -25 38 -39 -10 -39
-31 0 -34 2 -34 30 0 17 2 30 4 30 3 0 21 -9 40 -21z m-531 -6 c9 -3 17 -12
17 -20 0 -10 -9 -13 -32 -11 -26 2 -34 8 -36 27 -3 20 -1 23 15 16 10 -4 26
-10 36 -12z m442 -63 c0 -13 -5 -25 -11 -27 -13 -4 -26 35 -18 49 10 16 29 2
29 -22z m-271 -10 c-17 -33 -31 -38 -40 -15 -10 25 4 45 30 45 24 0 24 -1 10
-30z"/>
<path d="M1185 920 c-4 -16 -11 -32 -16 -35 -5 -4 -9 -13 -9 -20 0 -8 -15 -47
-34 -87 -18 -40 -48 -104 -66 -143 -146 -316 -142 -309 -171 -313 -50 -8 -80
-64 -41 -76 10 -3 25 -19 35 -35 10 -18 34 -34 64 -46 26 -9 71 -30 99 -45 37
-21 55 -25 67 -18 23 12 21 40 -4 72 -15 19 -19 34 -14 54 5 25 13 30 57 41
29 6 94 17 145 23 81 11 95 10 109 -3 14 -14 13 -20 -3 -53 -17 -37 -17 -38 3
-54 12 -9 27 -32 34 -49 7 -18 19 -33 26 -33 8 0 40 13 71 29 32 16 75 37 95
46 60 27 59 60 -1 85 -43 17 -98 113 -220 385 -17 38 -38 76 -45 85 -7 8 -23
48 -36 88 -17 56 -29 76 -46 82 -12 5 -28 18 -34 30 -6 11 -21 20 -35 20 -18
0 -25 -7 -30 -30z m104 -339 c12 -16 21 -35 21 -43 0 -7 7 -24 16 -36 20 -29
11 -42 -29 -42 -18 0 -40 -7 -50 -14 -26 -20 -57 -9 -57 20 0 12 5 26 10 29 6
3 10 16 10 27 0 23 37 88 50 88 5 0 18 -13 29 -29z m109 -134 c2 -12 -3 -17
-18 -17 -12 0 -24 -9 -30 -24 -7 -20 -17 -25 -62 -28 -29 -3 -66 -10 -83 -16
-16 -6 -62 -16 -102 -23 -64 -11 -73 -10 -88 5 -16 16 -16 18 1 31 11 8 23 15
28 15 5 0 17 7 27 16 23 20 165 21 185 1 4 -4 20 5 36 18 16 14 38 25 48 25
10 0 22 5 25 11 9 14 29 6 33 -14z m38 -54 c4 -15 13 -34 21 -41 17 -18 17
-32 -2 -32 -8 0 -15 4 -15 8 0 5 -9 19 -20 32 -11 13 -20 31 -20 42 0 28 29
21 36 -9z m-448 -135 c19 -19 14 -30 -8 -18 -11 6 -20 15 -20 20 0 14 14 12
28 -2z"/>
<path d="M1722 914 c-7 -3 -17 -14 -22 -24 -8 -16 -4 -26 25 -54 l35 -35 0
-236 0 -235 -29 -31 c-33 -34 -32 -49 2 -64 12 -6 24 -21 26 -35 1 -14 7 -27
11 -30 4 -3 59 -5 122 -5 l113 0 3 28 c4 35 -15 59 -39 52 -11 -4 -19 -5 -19
-3 -1 2 -3 48 -6 103 -3 55 -9 125 -14 155 -6 41 -5 58 5 68 10 11 22 1 68
-60 30 -40 80 -99 111 -130 31 -31 56 -61 56 -66 0 -5 -12 -17 -26 -26 -31
-21 -28 -48 6 -56 14 -3 26 -14 28 -25 2 -11 7 -24 12 -28 12 -13 228 -16 245
-3 13 10 12 15 -1 42 -8 17 -26 36 -40 42 -27 13 -25 -3 -28 282 -2 172 5 225
32 232 22 6 47 52 39 72 -4 10 -19 16 -41 16 -27 0 -35 5 -40 24 -5 22 -11 24
-103 28 -54 3 -106 1 -115 -4 -26 -13 -22 -41 12 -73 28 -27 30 -34 31 -104 0
-42 4 -102 8 -133 11 -89 -18 -105 -62 -35 -33 51 -135 160 -165 176 -30 16
-28 26 13 50 52 30 44 71 -14 71 -10 0 -23 11 -29 25 -11 23 -17 25 -76 25
-35 0 -76 2 -92 5 -16 2 -35 2 -42 -1z m146 -186 c14 -14 16 -54 3 -62 -12 -8
-44 43 -37 60 7 17 18 18 34 2z m388 -220 c-3 -17 -1 -46 6 -64 10 -28 9 -39
-5 -70 -15 -30 -20 -34 -32 -24 -8 7 -15 21 -15 31 0 10 -9 23 -21 29 -31 17
-20 52 23 75 22 11 38 28 38 38 0 9 3 17 6 17 4 0 4 -14 0 -32z m-405 -214
c37 -11 39 -28 4 -32 -19 -3 -27 3 -35 23 -5 14 -9 32 -9 38 1 7 3 5 6 -4 2
-9 18 -20 34 -25z m445 -4 c19 -8 24 -14 17 -21 -16 -16 -67 -7 -71 14 -4 20
14 22 54 7z"/>
<path d="M5210 902 c-103 -49 -188 -139 -211 -226 -6 -23 -11 -77 -11 -121 1
-71 5 -87 37 -150 43 -84 103 -153 170 -196 65 -42 103 -52 200 -55 87 -2 142
11 203 50 36 22 92 85 92 103 0 5 12 26 26 47 23 33 28 53 32 130 5 99 -8 154
-54 233 -31 54 -174 173 -207 173 -7 0 -22 7 -33 15 -28 21 -197 19 -244 -3z
m175 -72 c0 -32 -18 -35 -31 -5 -9 18 -9 25 0 29 20 8 31 0 31 -24z m-115 -10
c0 -11 -7 -20 -15 -20 -15 0 -21 21 -8 33 12 13 23 7 23 -13z m-65 -29 c3 -5
1 -12 -4 -15 -13 -8 -42 4 -35 15 7 12 31 12 39 0z m135 -5 c0 -18 -26 -40
-34 -27 -9 14 4 41 20 41 8 0 14 -6 14 -14z m-80 -36 c0 -6 11 -20 25 -32 20
-17 25 -31 25 -65 0 -25 -5 -53 -10 -64 -16 -28 -69 -47 -146 -51 -68 -3 -69
-3 -72 24 -4 32 36 64 68 55 15 -4 24 3 37 31 9 21 24 42 32 48 12 10 12 13
-4 21 -17 10 -17 11 3 17 12 4 22 12 22 17 0 5 5 9 10 9 6 0 10 -5 10 -10z
m120 -27 c0 -21 -3 -24 -9 -14 -5 8 -7 20 -4 28 8 21 13 15 13 -14z m145 -17
c31 -30 45 -52 45 -71 0 -25 -1 -26 -57 -23 -56 3 -56 3 -71 44 -18 50 -10 94
18 94 10 0 40 -20 65 -44z m109 -98 c20 -112 18 -148 -10 -148 -13 0 -15 -7
-11 -32 8 -58 -46 -128 -115 -146 -21 -6 -50 -20 -64 -31 -51 -40 -91 -18 -80
44 8 39 24 54 37 34 7 -11 13 -10 30 8 17 17 22 34 23 80 1 56 2 58 30 61 39
5 76 -6 76 -22 0 -7 -9 -25 -20 -39 -24 -30 -25 -37 -5 -37 8 0 15 7 15 15 0
8 7 15 15 15 10 0 15 10 15 29 0 16 7 35 16 42 12 10 15 26 12 69 -7 77 23
125 36 58z m-168 -17 c20 -15 31 -18 44 -11 24 13 70 13 70 0 0 -14 -67 -40
-109 -41 -77 -2 -85 -9 -91 -74 l-5 -59 -29 43 c-29 41 -29 44 -17 89 16 62
37 83 79 78 18 -3 44 -14 58 -25z m-183 -143 c18 -13 27 -28 27 -47 0 -15 7
-42 16 -59 11 -24 13 -36 4 -52 -6 -11 -8 -25 -5 -30 3 -5 1 -11 -5 -15 -5 -3
-10 1 -10 9 0 19 -23 31 -72 40 -46 8 -51 29 -6 24 38 -4 47 15 15 29 -34 16
-89 107 -74 122 15 15 75 3 110 -21z"/>
<path d="M6290 906 c-17 -17 -11 -39 20 -71 28 -29 29 -34 36 -162 4 -72 4
-138 1 -147 -10 -26 -39 -5 -80 56 -19 29 -62 79 -96 111 -34 32 -61 62 -61
67 0 5 12 15 28 22 20 10 27 20 27 43 0 27 -4 30 -33 33 -24 2 -36 10 -44 28
-11 24 -13 25 -117 22 -101 -3 -106 -4 -109 -26 -2 -14 7 -33 27 -53 l31 -31
0 -238 0 -239 -30 -21 c-32 -23 -42 -70 -16 -70 8 0 25 -13 38 -29 22 -27 27
-29 129 -34 107 -6 129 -1 129 31 0 7 -15 26 -32 43 -31 28 -33 35 -40 117 -4
48 -10 120 -14 160 -4 48 -3 72 4 72 6 0 32 -28 59 -61 26 -34 78 -93 116
-132 37 -38 67 -75 67 -83 0 -7 -9 -18 -20 -24 -28 -15 -26 -56 3 -63 12 -4
27 -16 32 -29 9 -21 17 -23 85 -23 41 0 93 -4 116 -9 35 -7 42 -5 48 9 9 23
-19 65 -44 65 -31 0 -37 58 -29 275 1 33 0 103 -2 155 l-4 95 30 10 c35 12 45
22 45 51 0 16 -8 24 -27 29 -16 3 -37 17 -48 30 -18 21 -30 24 -118 27 -56 2
-101 0 -107 -6z m-235 -191 c21 -17 25 -25 14 -25 -9 0 -22 -7 -29 -15 -9 -11
-16 -12 -31 -2 -22 13 -25 37 -7 55 16 16 18 15 53 -13z m359 -252 c2 -39 7
-76 11 -82 11 -18 -5 -51 -24 -51 -12 0 -20 10 -24 29 -4 17 -22 44 -42 62
-19 18 -35 35 -35 39 0 3 17 11 37 16 30 7 38 15 46 43 13 51 27 25 31 -56z
m-404 -97 c0 -8 -4 -18 -10 -21 -21 -13 -10 -43 21 -54 33 -11 31 -31 -4 -31
-48 0 -54 20 -31 103 6 21 24 23 24 3z"/>
<path d="M6709 897 c-11 -24 -9 -30 25 -67 l36 -40 0 -226 c0 -225 -5 -264
-36 -264 -22 0 -40 -46 -24 -65 7 -8 18 -15 25 -15 7 0 20 -11 28 -24 15 -22
24 -24 124 -28 59 -3 114 -2 121 0 22 8 10 55 -17 69 -13 6 -28 19 -33 28 -11
19 -15 476 -4 493 4 7 16 12 26 12 25 0 43 35 35 67 -4 19 -11 24 -33 21 -21
-2 -29 3 -40 25 -12 25 -17 27 -80 27 -37 0 -84 3 -104 6 -33 6 -39 4 -49 -19z
m171 -622 c0 -15 -43 -12 -48 3 -3 10 4 13 22 10 15 -2 26 -7 26 -13z"/>
<path d="M7117 912 c-26 -5 -31 -41 -9 -65 48 -53 55 -83 48 -212 -7 -109 -5
-127 15 -186 34 -100 104 -188 183 -231 86 -45 121 -58 164 -59 73 -2 146 7
173 21 34 19 121 84 141 107 23 25 60 111 53 122 -3 5 0 22 6 38 16 40 24 229
10 237 -15 10 -14 71 2 84 6 5 23 12 37 14 20 2 26 9 28 36 3 30 -4 37 -30 33
-4 0 -14 12 -22 28 -15 28 -18 28 -113 33 -54 3 -103 3 -110 1 -27 -11 -24
-43 6 -82 l31 -39 0 -148 c0 -147 -1 -150 -30 -196 -16 -25 -45 -59 -65 -74
-34 -25 -45 -28 -123 -28 -76 -1 -91 2 -118 23 -36 26 -64 82 -64 126 0 17 0
39 -1 50 0 11 0 52 1 92 0 39 -4 74 -10 78 -12 8 19 54 37 55 15 0 42 51 36
68 -3 6 -18 12 -34 12 -22 0 -29 5 -29 19 0 10 -6 23 -12 29 -12 10 -167 20
-201 14z m633 -551 c0 -18 -42 -61 -61 -61 -25 0 -24 25 1 50 20 20 60 28 60
11z m-152 -80 c20 -12 -32 -51 -58 -44 -22 6 -27 38 -7 46 19 8 51 7 65 -2z"/>
<path d="M2589 896 c-29 -14 -38 -55 -15 -68 14 -8 16 -41 16 -260 0 -241 -1
-253 -21 -274 -17 -18 -19 -26 -10 -43 7 -12 15 -21 20 -21 4 0 25 -16 45 -36
27 -26 42 -34 54 -28 9 4 71 11 137 15 168 9 210 21 269 74 27 25 52 45 57 45
4 0 15 21 25 48 10 26 24 54 31 63 15 18 15 20 9 125 -4 65 -9 83 -37 134 -5
8 -18 31 -29 52 -22 40 -76 87 -159 137 -56 34 -58 34 -277 45 -59 3 -99 0
-115 -8z m348 -187 c18 -6 44 -24 58 -40 22 -27 25 -40 25 -102 0 -66 -3 -76
-35 -123 -44 -63 -100 -96 -168 -98 l-52 -1 1 50 c4 229 8 312 15 321 10 12
107 8 156 -7z m116 -328 c-3 -11 -16 -29 -29 -42 -22 -20 -24 -21 -30 -4 -9
23 7 48 37 56 13 4 25 7 26 8 0 1 -1 -8 -4 -18z m-303 -66 c33 -40 -40 -64
-75 -25 -17 19 -17 20 6 29 35 14 55 13 69 -4z m145 -35 c0 -11 -12 -15 -49
-15 -49 0 -75 19 -39 28 37 10 88 2 88 -13z"/>
</g>
</svg>
